<svg width="134" height="134" viewBox="0 0 134 134" fill="none" xmlns="http://www.w3.org/2000/svg">
<g id="Gear">
<path id="Vector" d="M67 92.125C80.8762 92.125 92.125 80.8762 92.125 67C92.125 53.1238 80.8762 41.875 67 41.875C53.1238 41.875 41.875 53.1238 41.875 67C41.875 80.8762 53.1238 92.125 67 92.125Z" stroke="#2F2F2F" stroke-width="10" stroke-linecap="round" stroke-linejoin="round"/>
<path id="Vector_2" d="M96.1554 34.0757C97.4814 35.297 98.7377 36.5533 99.9241 37.8444L114.214 39.8858C116.542 43.9294 118.337 48.2576 119.553 52.7624L110.864 64.3304C110.864 64.3304 111.021 67.8898 110.864 69.6694L119.553 81.2374C118.343 85.7441 116.548 90.073 114.214 94.114L99.9241 96.1554C99.9241 96.1554 97.464 98.7202 96.1554 99.9241L94.114 114.214C90.0704 116.542 85.7422 118.337 81.2374 119.553L69.6694 110.864C67.8932 111.021 66.1066 111.021 64.3304 110.864L52.7624 119.553C48.2557 118.343 43.9268 116.548 39.8858 114.214L37.8444 99.9241C36.5533 98.7028 35.297 97.4465 34.0757 96.1554L19.7858 94.114C17.4575 90.0704 15.6629 85.7422 14.4468 81.2374L23.1358 69.6694C23.1358 69.6694 22.9788 66.1101 23.1358 64.3304L14.4468 52.7624C15.6572 48.2557 17.4522 43.9268 19.7858 39.8858L34.0757 37.8444C35.297 36.5533 36.5533 35.297 37.8444 34.0757L39.8858 19.7858C43.9294 17.4575 48.2576 15.6629 52.7624 14.4468L64.3304 23.1358C66.1066 22.9788 67.8932 22.9788 69.6694 23.1358L81.2374 14.4468C85.7441 15.6572 90.073 17.4522 94.114 19.7858L96.1554 34.0757Z" stroke="#2F2F2F" stroke-width="10" stroke-linecap="round" stroke-linejoin="round"/>
</g>
</svg>
