<svg width="134" height="134" viewBox="0 0 134 134" fill="none" xmlns="http://www.w3.org/2000/svg">
<g id="Handshake">
<path id="Vector" d="M125.991 63.7546L113.062 70.1929L96.3125 38.1585L109.398 31.6156C110.371 31.1199 111.5 31.0288 112.539 31.3622C113.579 31.6955 114.444 32.4264 114.947 33.3953L127.823 58.0492C128.085 58.5427 128.244 59.0834 128.293 59.6396C128.342 60.1958 128.28 60.7562 128.109 61.2878C127.938 61.8194 127.663 62.3115 127.299 62.7351C126.936 63.1587 126.491 63.5054 125.991 63.7546V63.7546Z" stroke="#2F2F2F" stroke-width="10" stroke-linecap="round" stroke-linejoin="round"/>
<path id="Vector_2" d="M20.9376 69.6697L8.00868 63.179C7.51087 62.9351 7.06719 62.5935 6.70405 62.1746C6.3409 61.7557 6.06568 61.2681 5.89477 60.7407C5.72386 60.2133 5.66074 59.6569 5.70916 59.1047C5.75759 58.5524 5.91657 58.0155 6.17665 57.5259L19.0532 32.872C19.5569 31.9038 20.4187 31.1705 21.4551 30.8283C22.4914 30.4862 23.6205 30.5621 24.6016 31.04L37.6876 37.583L20.9376 69.6697Z" stroke="#2F2F2F" stroke-width="10" stroke-linecap="round" stroke-linejoin="round"/>
<path id="Vector_3" d="M113.062 70.1929L104.688 80.0335L85.425 99.296C84.9 99.7869 84.2639 100.143 83.5711 100.335C82.8783 100.526 82.1494 100.547 81.4469 100.395L51.0875 92.8054C50.5329 92.6508 50.0162 92.3835 49.5695 92.0202L20.9375 69.6694" stroke="#2F2F2F" stroke-width="10" stroke-linecap="round" stroke-linejoin="round"/>
<path id="Vector_4" d="M104.688 80.0337L81.6563 63.2837L74.9563 68.3087C72.0536 70.4752 68.5285 71.6457 64.9063 71.6457C61.2842 71.6457 57.7591 70.4752 54.8563 68.3087L52.0298 66.1626C51.5518 65.7992 51.1565 65.3385 50.8699 64.8108C50.5834 64.2832 50.4122 63.7007 50.3676 63.1019C50.3231 62.5032 50.4062 61.9018 50.6116 61.3375C50.8169 60.7733 51.1397 60.2591 51.5587 59.829L72.0774 39.3626C72.4629 38.9791 72.9202 38.6753 73.4232 38.4687C73.9261 38.2622 74.4649 38.1568 75.0087 38.1587H96.3126" stroke="#2F2F2F" stroke-width="10" stroke-linecap="round" stroke-linejoin="round"/>
<path id="Vector_5" d="M38.0015 37.5827L64.8538 29.7311C65.8079 29.4575 66.8282 29.5317 67.7327 29.9405L85.8437 38.1584" stroke="#2F2F2F" stroke-width="10" stroke-linecap="round" stroke-linejoin="round"/>
<path id="Vector_6" d="M58.625 111.44L42.8695 107.462C42.2275 107.317 41.633 107.01 41.1422 106.572L29.3125 96.3125" stroke="#2F2F2F" stroke-width="10" stroke-linecap="round" stroke-linejoin="round"/>
</g>
</svg>
