<svg width="134" height="134" viewBox="0 0 134 134" fill="none" xmlns="http://www.w3.org/2000/svg">
<g id="Laptop">
<path id="Vector" d="M20.9375 92.125V37.6875C20.9375 35.4663 21.8199 33.3361 23.3905 31.7655C24.9611 30.1949 27.0913 29.3125 29.3125 29.3125H104.688C106.909 29.3125 109.039 30.1949 110.61 31.7655C112.18 33.3361 113.062 35.4663 113.062 37.6875V92.125" stroke="#2F2F2F" stroke-width="10" stroke-linecap="round" stroke-linejoin="round"/>
<path id="Vector_2" d="M12.5625 92.125H121.438V100.5C121.438 102.721 120.555 104.851 118.985 106.422C117.414 107.993 115.284 108.875 113.062 108.875H20.9375C18.7163 108.875 16.5861 107.993 15.0155 106.422C13.4449 104.851 12.5625 102.721 12.5625 100.5V92.125Z" stroke="#2F2F2F" stroke-width="10" stroke-linecap="round" stroke-linejoin="round"/>
<path id="Vector_3" d="M75.375 46.0625H58.625" stroke="#2F2F2F" stroke-width="10" stroke-linecap="round" stroke-linejoin="round"/>
</g>
</svg>
